<mxfile host="app.diagrams.net" modified="2023-09-19T09:26:11.496Z" agent="Mozilla/5.0 (Windows NT 10.0; Win64; x64; rv:109.0) Gecko/20100101 Firefox/117.0" etag="Onp9QPaQTLjXRScDS2IP" version="21.7.5" type="github">
  <diagram name="第 1 页" id="V5nuMK_EZN0PMGifXS_w">
    <mxGraphModel dx="1434" dy="782" grid="1" gridSize="10" guides="1" tooltips="1" connect="1" arrows="1" fold="1" page="1" pageScale="1" pageWidth="827" pageHeight="1169" math="0" shadow="0">
      <root>
        <mxCell id="0" />
        <mxCell id="1" parent="0" />
        <mxCell id="c8A6xsD-x8tXb0i-_6lJ-12" value="" style="edgeStyle=orthogonalEdgeStyle;rounded=0;orthogonalLoop=1;jettySize=auto;html=1;" edge="1" parent="1" source="c8A6xsD-x8tXb0i-_6lJ-10" target="c8A6xsD-x8tXb0i-_6lJ-11">
          <mxGeometry relative="1" as="geometry" />
        </mxCell>
        <mxCell id="c8A6xsD-x8tXb0i-_6lJ-10" value="接收车型消息" style="strokeWidth=2;html=1;shape=mxgraph.flowchart.terminator;whiteSpace=wrap;" vertex="1" parent="1">
          <mxGeometry x="110" y="40" width="100" height="60" as="geometry" />
        </mxCell>
        <mxCell id="c8A6xsD-x8tXb0i-_6lJ-14" value="" style="edgeStyle=orthogonalEdgeStyle;rounded=0;orthogonalLoop=1;jettySize=auto;html=1;" edge="1" parent="1" source="c8A6xsD-x8tXb0i-_6lJ-11" target="c8A6xsD-x8tXb0i-_6lJ-13">
          <mxGeometry relative="1" as="geometry" />
        </mxCell>
        <mxCell id="c8A6xsD-x8tXb0i-_6lJ-11" value="车型消息入库" style="rounded=1;whiteSpace=wrap;html=1;absoluteArcSize=1;arcSize=14;strokeWidth=2;" vertex="1" parent="1">
          <mxGeometry x="110" y="140" width="100" height="40" as="geometry" />
        </mxCell>
        <mxCell id="c8A6xsD-x8tXb0i-_6lJ-13" value="结束" style="strokeWidth=2;html=1;shape=mxgraph.flowchart.terminator;whiteSpace=wrap;" vertex="1" parent="1">
          <mxGeometry x="110" y="230" width="100" height="60" as="geometry" />
        </mxCell>
        <mxCell id="c8A6xsD-x8tXb0i-_6lJ-17" value="" style="edgeStyle=orthogonalEdgeStyle;rounded=0;orthogonalLoop=1;jettySize=auto;html=1;" edge="1" parent="1" source="c8A6xsD-x8tXb0i-_6lJ-15" target="c8A6xsD-x8tXb0i-_6lJ-16">
          <mxGeometry relative="1" as="geometry" />
        </mxCell>
        <mxCell id="c8A6xsD-x8tXb0i-_6lJ-15" value="接收报价信息" style="strokeWidth=2;html=1;shape=mxgraph.flowchart.terminator;whiteSpace=wrap;" vertex="1" parent="1">
          <mxGeometry x="274" y="40" width="100" height="60" as="geometry" />
        </mxCell>
        <mxCell id="c8A6xsD-x8tXb0i-_6lJ-19" value="" style="edgeStyle=orthogonalEdgeStyle;rounded=0;orthogonalLoop=1;jettySize=auto;html=1;" edge="1" parent="1" source="c8A6xsD-x8tXb0i-_6lJ-16">
          <mxGeometry relative="1" as="geometry">
            <mxPoint x="324" y="230" as="targetPoint" />
          </mxGeometry>
        </mxCell>
        <mxCell id="c8A6xsD-x8tXb0i-_6lJ-16" value="查询本品竞品信息" style="rounded=1;whiteSpace=wrap;html=1;absoluteArcSize=1;arcSize=14;strokeWidth=2;" vertex="1" parent="1">
          <mxGeometry x="274" y="140" width="100" height="40" as="geometry" />
        </mxCell>
        <mxCell id="c8A6xsD-x8tXb0i-_6lJ-22" value="" style="edgeStyle=orthogonalEdgeStyle;rounded=0;orthogonalLoop=1;jettySize=auto;html=1;" edge="1" parent="1" source="c8A6xsD-x8tXb0i-_6lJ-20" target="c8A6xsD-x8tXb0i-_6lJ-21">
          <mxGeometry relative="1" as="geometry" />
        </mxCell>
        <mxCell id="c8A6xsD-x8tXb0i-_6lJ-23" value="是" style="edgeLabel;html=1;align=center;verticalAlign=middle;resizable=0;points=[];" vertex="1" connectable="0" parent="c8A6xsD-x8tXb0i-_6lJ-22">
          <mxGeometry x="-0.3" y="-1" relative="1" as="geometry">
            <mxPoint as="offset" />
          </mxGeometry>
        </mxCell>
        <mxCell id="c8A6xsD-x8tXb0i-_6lJ-26" style="edgeStyle=orthogonalEdgeStyle;rounded=0;orthogonalLoop=1;jettySize=auto;html=1;exitX=1;exitY=0.5;exitDx=0;exitDy=0;exitPerimeter=0;entryX=0.5;entryY=0;entryDx=0;entryDy=0;entryPerimeter=0;" edge="1" parent="1" source="c8A6xsD-x8tXb0i-_6lJ-20" target="c8A6xsD-x8tXb0i-_6lJ-24">
          <mxGeometry relative="1" as="geometry">
            <Array as="points">
              <mxPoint x="450" y="270" />
              <mxPoint x="450" y="410" />
              <mxPoint x="324" y="410" />
            </Array>
          </mxGeometry>
        </mxCell>
        <mxCell id="c8A6xsD-x8tXb0i-_6lJ-27" value="否" style="edgeLabel;html=1;align=center;verticalAlign=middle;resizable=0;points=[];" vertex="1" connectable="0" parent="c8A6xsD-x8tXb0i-_6lJ-26">
          <mxGeometry x="-0.1559" y="-1" relative="1" as="geometry">
            <mxPoint as="offset" />
          </mxGeometry>
        </mxCell>
        <mxCell id="c8A6xsD-x8tXb0i-_6lJ-20" value="&lt;div&gt;是否有不售卖&lt;/div&gt;&lt;div&gt;但有报价车型&lt;/div&gt;" style="strokeWidth=2;html=1;shape=mxgraph.flowchart.decision;whiteSpace=wrap;" vertex="1" parent="1">
          <mxGeometry x="274" y="230" width="100" height="80" as="geometry" />
        </mxCell>
        <mxCell id="c8A6xsD-x8tXb0i-_6lJ-25" value="" style="edgeStyle=orthogonalEdgeStyle;rounded=0;orthogonalLoop=1;jettySize=auto;html=1;" edge="1" parent="1" source="c8A6xsD-x8tXb0i-_6lJ-21" target="c8A6xsD-x8tXb0i-_6lJ-24">
          <mxGeometry relative="1" as="geometry" />
        </mxCell>
        <mxCell id="c8A6xsD-x8tXb0i-_6lJ-21" value="发送短信" style="rounded=1;whiteSpace=wrap;html=1;absoluteArcSize=1;arcSize=14;strokeWidth=2;" vertex="1" parent="1">
          <mxGeometry x="274" y="350" width="100" height="40" as="geometry" />
        </mxCell>
        <mxCell id="c8A6xsD-x8tXb0i-_6lJ-24" value="结束" style="strokeWidth=2;html=1;shape=mxgraph.flowchart.terminator;whiteSpace=wrap;" vertex="1" parent="1">
          <mxGeometry x="274" y="440" width="100" height="60" as="geometry" />
        </mxCell>
        <mxCell id="c8A6xsD-x8tXb0i-_6lJ-30" value="" style="edgeStyle=orthogonalEdgeStyle;rounded=0;orthogonalLoop=1;jettySize=auto;html=1;" edge="1" parent="1" source="c8A6xsD-x8tXb0i-_6lJ-28" target="c8A6xsD-x8tXb0i-_6lJ-29">
          <mxGeometry relative="1" as="geometry" />
        </mxCell>
        <mxCell id="c8A6xsD-x8tXb0i-_6lJ-28" value="定时任务" style="strokeWidth=2;html=1;shape=mxgraph.flowchart.terminator;whiteSpace=wrap;" vertex="1" parent="1">
          <mxGeometry x="530" y="40" width="100" height="60" as="geometry" />
        </mxCell>
        <mxCell id="c8A6xsD-x8tXb0i-_6lJ-32" value="" style="edgeStyle=orthogonalEdgeStyle;rounded=0;orthogonalLoop=1;jettySize=auto;html=1;" edge="1" parent="1" source="c8A6xsD-x8tXb0i-_6lJ-29" target="c8A6xsD-x8tXb0i-_6lJ-31">
          <mxGeometry relative="1" as="geometry" />
        </mxCell>
        <mxCell id="c8A6xsD-x8tXb0i-_6lJ-29" value="查询24小时内售卖状态为不售卖的车" style="rounded=1;whiteSpace=wrap;html=1;absoluteArcSize=1;arcSize=14;strokeWidth=2;" vertex="1" parent="1">
          <mxGeometry x="530" y="130" width="100" height="40" as="geometry" />
        </mxCell>
        <mxCell id="c8A6xsD-x8tXb0i-_6lJ-34" value="" style="edgeStyle=orthogonalEdgeStyle;rounded=0;orthogonalLoop=1;jettySize=auto;html=1;" edge="1" parent="1" source="c8A6xsD-x8tXb0i-_6lJ-31" target="c8A6xsD-x8tXb0i-_6lJ-33">
          <mxGeometry relative="1" as="geometry" />
        </mxCell>
        <mxCell id="c8A6xsD-x8tXb0i-_6lJ-35" value="是" style="edgeLabel;html=1;align=center;verticalAlign=middle;resizable=0;points=[];" vertex="1" connectable="0" parent="c8A6xsD-x8tXb0i-_6lJ-34">
          <mxGeometry x="-0.48" y="2" relative="1" as="geometry">
            <mxPoint x="-2" y="7" as="offset" />
          </mxGeometry>
        </mxCell>
        <mxCell id="c8A6xsD-x8tXb0i-_6lJ-39" style="edgeStyle=orthogonalEdgeStyle;rounded=0;orthogonalLoop=1;jettySize=auto;html=1;entryX=0.5;entryY=0;entryDx=0;entryDy=0;" edge="1" parent="1" source="c8A6xsD-x8tXb0i-_6lJ-31" target="c8A6xsD-x8tXb0i-_6lJ-38">
          <mxGeometry relative="1" as="geometry" />
        </mxCell>
        <mxCell id="c8A6xsD-x8tXb0i-_6lJ-40" value="否" style="edgeLabel;html=1;align=center;verticalAlign=middle;resizable=0;points=[];" vertex="1" connectable="0" parent="c8A6xsD-x8tXb0i-_6lJ-39">
          <mxGeometry x="-0.3474" y="-2" relative="1" as="geometry">
            <mxPoint as="offset" />
          </mxGeometry>
        </mxCell>
        <mxCell id="c8A6xsD-x8tXb0i-_6lJ-31" value="&lt;div&gt;是否有相关的&lt;/div&gt;&lt;div&gt;本品竞品信息&lt;/div&gt;" style="strokeWidth=2;html=1;shape=mxgraph.flowchart.decision;whiteSpace=wrap;" vertex="1" parent="1">
          <mxGeometry x="530" y="210" width="100" height="80" as="geometry" />
        </mxCell>
        <mxCell id="c8A6xsD-x8tXb0i-_6lJ-37" value="" style="edgeStyle=orthogonalEdgeStyle;rounded=0;orthogonalLoop=1;jettySize=auto;html=1;" edge="1" parent="1" source="c8A6xsD-x8tXb0i-_6lJ-33" target="c8A6xsD-x8tXb0i-_6lJ-36">
          <mxGeometry relative="1" as="geometry" />
        </mxCell>
        <mxCell id="c8A6xsD-x8tXb0i-_6lJ-33" value="发送对应车型邮件" style="rounded=1;whiteSpace=wrap;html=1;absoluteArcSize=1;arcSize=14;strokeWidth=2;" vertex="1" parent="1">
          <mxGeometry x="530" y="340" width="100" height="40" as="geometry" />
        </mxCell>
        <mxCell id="c8A6xsD-x8tXb0i-_6lJ-36" value="结束" style="strokeWidth=2;html=1;shape=mxgraph.flowchart.terminator;whiteSpace=wrap;" vertex="1" parent="1">
          <mxGeometry x="530" y="430" width="100" height="60" as="geometry" />
        </mxCell>
        <mxCell id="c8A6xsD-x8tXb0i-_6lJ-41" style="edgeStyle=orthogonalEdgeStyle;rounded=0;orthogonalLoop=1;jettySize=auto;html=1;" edge="1" parent="1" source="c8A6xsD-x8tXb0i-_6lJ-38" target="c8A6xsD-x8tXb0i-_6lJ-36">
          <mxGeometry relative="1" as="geometry">
            <Array as="points">
              <mxPoint x="730" y="410" />
              <mxPoint x="580" y="410" />
            </Array>
          </mxGeometry>
        </mxCell>
        <mxCell id="c8A6xsD-x8tXb0i-_6lJ-38" value="数据正常通知" style="rounded=1;whiteSpace=wrap;html=1;absoluteArcSize=1;arcSize=14;strokeWidth=2;" vertex="1" parent="1">
          <mxGeometry x="680" y="340" width="100" height="40" as="geometry" />
        </mxCell>
      </root>
    </mxGraphModel>
  </diagram>
</mxfile>
